<?xml version="1.0" encoding="iso-8859-1"?>
<!-- Generator: Adobe Illustrator 16.0.0, SVG Export Plug-In . SVG Version: 6.00 Build 0)  -->
<!DOCTYPE svg PUBLIC "-//W3C//DTD SVG 1.1//EN" "http://www.w3.org/Graphics/SVG/1.1/DTD/svg11.dtd">
<svg version="1.1" id="Capa_1" xmlns="http://www.w3.org/2000/svg" xmlns:xlink="http://www.w3.org/1999/xlink" x="0px" y="0px"
	 width="31.125px" height="31.125px" viewBox="0 0 31.125 31.125" style="enable-background:new 0 0 31.125 31.125;"
	 xml:space="preserve">
<g>
	<path d="M0.001,15.563c0,6.159,3.579,11.483,8.771,14.007L1.348,9.23C0.487,11.164,0.001,13.306,0.001,15.563z M26.069,14.776
		c0-1.923-0.69-3.255-1.283-4.291c-0.787-1.284-1.528-2.366-1.528-3.649c0-1.429,1.086-2.762,2.613-2.762
		c0.068,0,0.134,0.008,0.203,0.011C23.304,1.549,19.615,0,15.565,0C10.127,0,5.345,2.79,2.562,7.016
		c0.365,0.011,3.153-0.094,3.153-0.094l5.981,18.2l3.406-10.213l-2.776-8.073h5.146l5.859,18.158l1.555-5.188
		C25.673,17.784,26.069,16.109,26.069,14.776z M15.836,16.925l-4.67,13.566c1.396,0.409,2.869,0.634,4.398,0.634
		c1.811,0,3.55-0.314,5.167-0.881c-0.041-0.067-0.082-0.139-0.113-0.215L15.836,16.925z M29.218,8.096
		c0.068,0.496,0.105,1.027,0.105,1.602c0,1.578-0.297,3.353-1.186,5.572l-4.752,13.743c4.627-2.698,7.737-7.709,7.737-13.45
		C31.125,12.856,30.433,10.312,29.218,8.096z"/>
</g>
<g>
</g>
<g>
</g>
<g>
</g>
<g>
</g>
<g>
</g>
<g>
</g>
<g>
</g>
<g>
</g>
<g>
</g>
<g>
</g>
<g>
</g>
<g>
</g>
<g>
</g>
<g>
</g>
<g>
</g>
</svg>
